# xmcd
#
# Track frame offsets:
#	150
#	4982
#	25877
#	46770
#	68200
#	94385
#	122742
#	137505
#	167982
#	189922
#	213100
#	238912
#	240767
#	263160
#	285190
#
# Disc length: 4155 seconds
#
# Revision: 1
# Processed by: cddbd v1.5.1PL0 Copyright (c) Steve Scherf et al.
# Submitted via: CDex 1.50Beta5
#
DISCID=c510390f
DTITLE=Sunaga t Experience - World Standard .02 A TATSUO SUNAGA LIVE MIX for Sunaga t Experience remixes
DYEAR=1900
DGENRE=
TTITLE0=short wave radio2
TTITLE1=smile in your face (Sunaga t Experience remix) - Boo featuring MURO
TTITLE2=私の朝は朝帰りの朝 (audiomusica No3 instrumental remix) - Shinobu Yoshioka
TTITLE3=times 24h by starlight - Sunaga t Experience
TTITLE4=song for Bebe (Sunaga t Experience jet set remix) - Jazztronik
TTITLE5=whistle song (Sunaga t Experience remix) - Fantastic Plastic Machine
TTITLE6=get into a groove (Sunaga t Experience remix) - Every Little Thing
TTITLE7=pretender (Sunaga t Experience music console) - FUDGE
TTITLE8=over and over (a mais querida mix) - Every Little Thing
TTITLE9=it's you - Sunaga t Experience
TTITLE10=deeper stream (audiomusica No4 mix) - DEJJA
TTITLE11=traffic information
TTITLE12=baby be mine (Sunaga t Experience remix) - SUITE CHIC
TTITLE13=やわらかな夜 (waltz for &'s remix) - orange pekoe
TTITLE14=長者町ブルース (audiomusica No10 mix) - Crazy Ken Band
EXTD=
EXTT0=
EXTT1=
EXTT2=
EXTT3=
EXTT4=
EXTT5=
EXTT6=
EXTT7=
EXTT8=
EXTT9=
EXTT10=
EXTT11=
EXTT12=
EXTT13=
EXTT14=
PLAYORDER=
